<?xml version="1.0" encoding="utf-8"?>
<!-- Generator: Adobe Illustrator 26.0.2, SVG Export Plug-In . SVG Version: 6.00 Build 0)  -->
<svg version="1.1" xmlns="http://www.w3.org/2000/svg" xmlns:xlink="http://www.w3.org/1999/xlink" x="0px" y="0px"
	 viewBox="0 0 100 100" style="enable-background:new 0 0 100 100;" xml:space="preserve">
<g id="圖層_1">
	<g>
		<path d="M57.92,12.65l-1.1-0.12l-0.7-2.67l-3.87-0.42l-1.19,2.46l-1.11-0.12l4.45-8.65l1.01,0.11L57.92,12.65z M55.88,8.91
			l-1.02-4.05c-0.03-0.11-0.05-0.32-0.07-0.61l-0.03,0c-0.07,0.26-0.14,0.45-0.21,0.58L52.7,8.57L55.88,8.91z"/>
		<path d="M65.59,15.34l-1.18-0.42l-1.98-8.5c-0.04-0.2-0.07-0.4-0.08-0.61l-0.03-0.01c-0.03,0.19-0.16,0.57-0.37,1.16l-2.25,6.26
			l-0.94-0.34l3.07-8.54l1.25,0.45l1.88,8.38c0.09,0.43,0.14,0.67,0.14,0.71l0.02,0.01c0.06-0.3,0.2-0.73,0.4-1.31l2.2-6.13
			l0.94,0.34L65.59,15.34z"/>
		<path d="M68.18,16.92l-0.87-0.49l4.48-7.89l0.87,0.49L68.18,16.92z"/>
		<path d="M76.24,23.09l4.01-4.64c0.3-0.35,0.71-0.77,1.22-1.26l-0.02-0.02c-0.36,0.25-0.62,0.41-0.76,0.47l-6.99,3.25l-0.34-0.29
			l2.17-7.35c0.06-0.19,0.19-0.48,0.39-0.85l-0.02-0.02c-0.18,0.27-0.55,0.71-1.09,1.35l-4.02,4.65l-0.74-0.64l5.93-6.87l0.98,0.85
			l-2.03,6.7c-0.16,0.53-0.29,0.89-0.38,1.09l0.03,0.03c0.29-0.16,0.65-0.34,1.05-0.55l6.36-2.92l0.93,0.8l-5.93,6.87L76.24,23.09z"
			/>
		<path d="M82,31.02l-0.62-0.91l1.57-2.27l-2.2-3.21l-2.65,0.69l-0.63-0.92l9.46-2.24L87.52,23L82,31.02z M83.52,27.04l2.42-3.41
			c0.07-0.09,0.21-0.24,0.42-0.45l-0.02-0.02c-0.24,0.11-0.44,0.19-0.58,0.22l-4.05,1.03L83.52,27.04z"/>
		<path d="M91.52,32.61l-1.08-2.38l-7.43,3.37l-0.41-0.91l7.43-3.37l-1.08-2.38l0.83-0.38l2.58,5.68L91.52,32.61z"/>
		<path d="M84.61,38.06l-0.29-0.95l8.69-2.62l0.29,0.95L84.61,38.06z"/>
		<path d="M89.63,38.89c1.45-0.17,2.65,0.08,3.61,0.76c0.96,0.68,1.52,1.69,1.68,3.03c0.15,1.24-0.15,2.29-0.91,3.15
			c-0.75,0.86-1.8,1.37-3.13,1.53c-1.44,0.17-2.64-0.07-3.6-0.73c-0.96-0.66-1.53-1.66-1.69-2.98c-0.15-1.27,0.15-2.34,0.91-3.21
			C87.25,39.57,88.3,39.05,89.63,38.89z M89.85,39.92c-1.08,0.13-1.94,0.52-2.58,1.18c-0.64,0.66-0.9,1.47-0.79,2.43
			c0.12,1.03,0.55,1.79,1.29,2.28s1.68,0.67,2.83,0.53c1.19-0.14,2.08-0.53,2.68-1.16c0.6-0.63,0.84-1.46,0.72-2.47
			c-0.12-0.99-0.57-1.73-1.35-2.23C91.87,39.98,90.93,39.79,89.85,39.92z"/>
		<path d="M85.2,56.41l0.17-1.24l7.89-3.72c0.18-0.08,0.38-0.15,0.58-0.21l0-0.04c-0.19,0.01-0.59-0.03-1.21-0.12l-6.6-0.88
			l0.13-0.99l9,1.2l-0.17,1.31l-7.8,3.61c-0.4,0.18-0.62,0.28-0.66,0.28l0,0.02c0.3,0,0.76,0.04,1.36,0.12l6.45,0.86l-0.13,0.99
			L85.2,56.41z"/>
		<path d="M83.78,60.92l8.14,4.01l-1.09,2.21c-1.41,2.86-3.44,3.64-6.08,2.34c-1.27-0.63-2.09-1.51-2.47-2.65
			c-0.38-1.14-0.23-2.4,0.45-3.78L83.78,60.92z M90.66,65.42l-6.5-3.21l-0.61,1.24c-0.53,1.08-0.66,2.07-0.37,2.96
			c0.28,0.89,0.95,1.59,2.01,2.11c2.12,1.04,3.73,0.44,4.84-1.81L90.66,65.42z"/>
		<path d="M76.76,72.23l2.93-3.76l7.16,5.58l-2.8,3.6l-0.72-0.56l2.19-2.82l-2.44-1.9l-2.03,2.6l-0.72-0.56l2.03-2.6l-2.56-1.99
			l-2.32,2.98L76.76,72.23z"/>
		<path d="M77.15,74.11c-0.34,0-0.74,0.1-1.2,0.31c-0.46,0.21-0.84,0.45-1.14,0.72c-0.98,0.88-1.15,1.68-0.5,2.4
			c0.18,0.2,0.39,0.33,0.64,0.4c0.24,0.06,0.5,0.08,0.78,0.04c0.28-0.04,0.79-0.16,1.53-0.36c1.07-0.29,1.83-0.38,2.27-0.27
			c0.45,0.1,0.83,0.33,1.14,0.68c0.49,0.54,0.66,1.17,0.51,1.9s-0.55,1.38-1.22,1.99c-0.67,0.61-1.22,0.96-1.65,1.05l-0.77-0.86
			c0.64-0.08,1.27-0.41,1.89-0.97c0.43-0.38,0.69-0.79,0.8-1.21c0.11-0.42,0.01-0.8-0.28-1.13c-0.18-0.2-0.39-0.34-0.62-0.4
			c-0.23-0.06-0.47-0.08-0.74-0.04c-0.26,0.04-0.73,0.15-1.42,0.34c-0.96,0.27-1.71,0.37-2.25,0.29c-0.55-0.07-0.99-0.3-1.34-0.69
			c-0.52-0.57-0.71-1.21-0.58-1.9c0.13-0.69,0.58-1.38,1.33-2.05c0.23-0.21,0.56-0.44,1-0.69s0.77-0.4,1.02-0.42L77.15,74.11z"/>
		<path d="M69.92,77.99l0.82-0.56l5.13,7.49l-0.82,0.56L69.92,77.99z"/>
		<path d="M62.4,82.65c0.6-0.85,1.4-1.51,2.41-1.99c1.16-0.55,2.28-0.61,3.36-0.19c1.08,0.42,1.91,1.25,2.49,2.49
			c0.6,1.26,0.69,2.5,0.27,3.69c-0.42,1.2-1.24,2.08-2.46,2.66c-0.91,0.43-1.72,0.63-2.45,0.62l-0.48-1.02
			c0.86,0.11,1.74-0.05,2.65-0.48c0.93-0.44,1.54-1.12,1.84-2.03s0.2-1.89-0.28-2.92c-0.49-1.05-1.16-1.74-1.99-2.09
			s-1.73-0.29-2.68,0.16c-0.66,0.31-1.17,0.71-1.52,1.2l1.11,2.35l1.81-0.85l0.39,0.83l-2.71,1.28L62.4,82.65z"/>
		<path d="M53.47,84.02l1.23-0.24l6.07,6.27c0.14,0.15,0.26,0.31,0.38,0.48l0.03-0.01c-0.07-0.18-0.16-0.57-0.28-1.19l-1.29-6.53
			l0.98-0.19l1.76,8.9l-1.3,0.26l-5.93-6.22c-0.3-0.32-0.46-0.5-0.48-0.54l-0.02,0c0.1,0.29,0.21,0.73,0.33,1.33l1.27,6.39
			l-0.98,0.2L53.47,84.02z"/>
		<path d="M43.89,83.58l5.41,0.53l-0.09,0.88l-2.89,2.39c-0.96,0.79-1.56,1.38-1.79,1.75c-0.24,0.38-0.38,0.78-0.42,1.23
			c-0.05,0.53,0.06,0.96,0.33,1.27s0.69,0.5,1.25,0.56c0.8,0.08,1.61-0.19,2.42-0.82l-0.1,1.04c-0.75,0.49-1.59,0.69-2.53,0.59
			c-0.78-0.08-1.38-0.35-1.81-0.83c-0.43-0.48-0.6-1.08-0.53-1.82c0.06-0.57,0.27-1.11,0.63-1.63c0.36-0.52,1.02-1.17,1.96-1.94
			l2.31-1.87l0-0.02l-4.24-0.42L43.89,83.58z"/>
		<path d="M41.62,87.59c-0.44,1.54-1.03,2.63-1.76,3.28c-0.73,0.65-1.57,0.83-2.51,0.56c-1.81-0.52-2.29-2.27-1.43-5.25
			c0.42-1.45,0.99-2.5,1.71-3.14s1.56-0.83,2.51-0.56c0.89,0.25,1.45,0.83,1.7,1.72C42.09,85.09,42.01,86.22,41.62,87.59z
			 M40.65,87.36c0.69-2.39,0.41-3.76-0.84-4.12c-1.23-0.36-2.2,0.68-2.9,3.1c-0.73,2.52-0.49,3.95,0.72,4.3
			C38.91,91.01,39.91,89.92,40.65,87.36z"/>
		<path d="M31.62,79.06l4.86,2.43l-0.4,0.79l-3.55,1.2c-1.18,0.4-1.95,0.73-2.3,0.99c-0.36,0.26-0.64,0.6-0.83,0.99
			c-0.24,0.48-0.29,0.92-0.15,1.31c0.14,0.39,0.46,0.72,0.97,0.97c0.72,0.36,1.57,0.4,2.56,0.11l-0.47,0.93
			c-0.88,0.19-1.73,0.07-2.58-0.35c-0.7-0.35-1.16-0.82-1.39-1.42c-0.23-0.6-0.17-1.23,0.16-1.89c0.26-0.51,0.65-0.94,1.17-1.3
			s1.37-0.73,2.53-1.11l2.83-0.92l0.01-0.02l-3.81-1.91L31.62,79.06z"/>
		<path d="M29.53,79.26c-0.25-0.69-0.63-1.23-1.14-1.62c-0.51-0.39-1.04-0.55-1.58-0.5s-1,0.32-1.37,0.81
			c-0.37,0.49-0.49,0.99-0.38,1.5c0.12,0.51,0.48,0.99,1.09,1.45c0.19,0.14,0.58,0.41,1.18,0.8l-2.72,3.61l-3.47-2.62l0.54-0.71
			l2.73,2.06l1.64-2.17c-0.28-0.19-0.5-0.34-0.64-0.44c-0.76-0.57-1.21-1.21-1.36-1.92s0.04-1.41,0.57-2.1
			c0.54-0.72,1.21-1.11,1.99-1.17c0.78-0.06,1.55,0.19,2.31,0.77c0.67,0.5,1.09,0.98,1.26,1.42L29.53,79.26z"/>
		<path d="M19.75,73.35l2.72-2.12l0.61,0.79l-7.16,5.58l-1.51-1.93c-0.58-0.75-0.85-1.48-0.81-2.19c0.04-0.71,0.4-1.33,1.08-1.86
			c0.7-0.55,1.46-0.74,2.28-0.58c0.82,0.16,1.5,0.61,2.04,1.36L19.75,73.35z M16.03,76.25l2.98-2.32l-0.7-0.9
			c-0.46-0.59-0.94-0.93-1.45-1.04s-1.01,0.04-1.5,0.42c-0.96,0.75-1,1.69-0.12,2.82L16.03,76.25z"/>
		<path d="M16.14,60.82l0.54,1.07l-1.59,2.51c-0.34,0.54-0.53,0.96-0.56,1.27c-0.03,0.31,0.03,0.63,0.19,0.95l0.4,0.8l3.47-1.75
			l0.45,0.89l-8.1,4.09l-1.2-2.38c-0.38-0.74-0.48-1.43-0.32-2.06s0.58-1.12,1.25-1.46c1.12-0.56,2.15-0.33,3.09,0.69l0.02-0.01
			c-0.02-0.27,0.02-0.52,0.1-0.75c0.08-0.22,0.29-0.6,0.6-1.12L16.14,60.82z M11.31,69.34l2.98-1.5l-0.67-1.32
			c-0.25-0.49-0.59-0.82-1.04-0.99s-0.91-0.13-1.38,0.11c-0.44,0.22-0.71,0.54-0.82,0.94c-0.1,0.41-0.02,0.88,0.25,1.42L11.31,69.34
			z"/>
		<path d="M14.16,53.26l0.28,1.07l-2.25,1.6l0.98,3.76l2.73,0.24l0.28,1.08l-9.66-1.08l-0.26-0.98L14.16,53.26z M11.39,56.49
			l-3.42,2.4c-0.1,0.07-0.28,0.16-0.54,0.28l0.01,0.03c0.27-0.03,0.47-0.03,0.62-0.01l4.16,0.4L11.39,56.49z"/>
		<path d="M13.5,46.38c0.39,0.65,0.61,1.48,0.66,2.47c0.06,1.27-0.31,2.32-1.11,3.13s-1.87,1.26-3.2,1.32
			C8.44,53.38,7.26,53,6.3,52.19s-1.47-1.9-1.54-3.27c-0.04-0.86,0.05-1.57,0.27-2.15l1.08-0.05c-0.33,0.67-0.47,1.39-0.44,2.18
			c0.05,1.08,0.45,1.92,1.21,2.53c0.76,0.61,1.7,0.89,2.84,0.83c1.08-0.05,1.95-0.39,2.6-1.03c0.65-0.63,0.96-1.45,0.91-2.46
			c-0.04-0.91-0.28-1.7-0.72-2.35L13.5,46.38z"/>
		<path d="M6.75,38.5l-0.38,2.59l8.08,1.18l-0.14,0.99l-8.08-1.18l-0.38,2.59l-0.9-0.13l0.9-6.17L6.75,38.5z"/>
		<path d="M15.52,37.62l-0.27,0.96l-8.73-2.49l0.27-0.96L15.52,37.62z"/>
		<path d="M18.27,29.86c0.05,0.76-0.13,1.59-0.55,2.5c-0.53,1.16-1.34,1.92-2.43,2.28c-1.09,0.36-2.24,0.26-3.45-0.29
			c-1.27-0.58-2.15-1.45-2.63-2.61c-0.48-1.16-0.44-2.36,0.13-3.61c0.36-0.78,0.77-1.38,1.23-1.78l0.98,0.45
			c-0.6,0.44-1.06,1.02-1.39,1.74c-0.45,0.98-0.48,1.91-0.08,2.8c0.39,0.89,1.11,1.57,2.15,2.04c0.98,0.45,1.91,0.54,2.78,0.28
			c0.87-0.26,1.52-0.85,1.94-1.77c0.38-0.83,0.52-1.64,0.43-2.42L18.27,29.86z"/>
		<path d="M22.23,24.94l-2.77,3.88l-7.39-5.27l2.65-3.72l0.74,0.53l-2.07,2.91l2.52,1.79l1.91-2.69l0.74,0.53l-1.91,2.69l2.64,1.88
			l2.19-3.07L22.23,24.94z"/>
		<path d="M22.56,23.85c-0.14-0.13-0.22-0.29-0.22-0.48s0.05-0.35,0.17-0.49c0.13-0.14,0.28-0.21,0.47-0.22
			c0.19-0.01,0.35,0.05,0.5,0.18c0.14,0.13,0.21,0.28,0.22,0.48s-0.05,0.35-0.17,0.49c-0.12,0.13-0.28,0.21-0.47,0.22
			C22.87,24.04,22.71,23.98,22.56,23.85z"/>
		<path d="M24.37,21.94c-0.13-0.14-0.19-0.3-0.19-0.5s0.08-0.35,0.21-0.47c0.14-0.13,0.3-0.19,0.49-0.18
			c0.19,0.01,0.35,0.08,0.48,0.22c0.13,0.14,0.19,0.3,0.19,0.49c-0.01,0.19-0.07,0.35-0.21,0.48c-0.13,0.12-0.29,0.19-0.48,0.18
			C24.67,22.15,24.51,22.08,24.37,21.94z"/>
		<path d="M26.33,20.14c-0.12-0.15-0.17-0.32-0.15-0.51s0.1-0.34,0.24-0.46c0.15-0.12,0.31-0.17,0.5-0.15
			c0.19,0.02,0.34,0.1,0.46,0.25c0.12,0.15,0.17,0.31,0.15,0.5c-0.02,0.19-0.1,0.34-0.24,0.46c-0.14,0.11-0.3,0.16-0.49,0.15
			C26.61,20.38,26.46,20.29,26.33,20.14z"/>
	</g>
</g>
<g id="圖層_2">
	<path d="M62.77,48.98l4.08-9.18c0.16-0.35,0.2-0.73,0.1-1.12c-0.19-0.79-0.92-1.33-1.74-1.33H40.27c1.04-0.66,1.7-1.85,1.6-3.19
		c-0.13-1.68-1.49-3.03-3.18-3.15C36.68,30.86,35,32.46,35,34.44c0,1.1,0.52,2.08,1.33,2.71v27.7h3.17v-4.23h25.71
		c0.82,0,1.55-0.54,1.74-1.33c0.1-0.39,0.06-0.77-0.1-1.12L62.77,48.98z M39.5,57.45V40.52h23.56l-3.19,7.17
		c-0.36,0.82-0.36,1.76,0,2.58l3.19,7.18H39.5z"/>
</g>
</svg>
